<svg width="168" height="57" viewBox="0 0 168 57" fill="none" xmlns="http://www.w3.org/2000/svg">
<path d="M1.728 28V10.12H9.264C10.448 10.12 11.456 10.328 12.288 10.744C13.136 11.144 13.784 11.72 14.232 12.472C14.696 13.208 14.928 14.104 14.928 15.16C14.928 15.976 14.704 16.744 14.256 17.464C13.824 18.168 13.128 18.752 12.168 19.216V17.704C13.048 18.04 13.744 18.456 14.256 18.952C14.768 19.448 15.128 20 15.336 20.608C15.544 21.216 15.648 21.856 15.648 22.528C15.648 24.24 15.08 25.584 13.944 26.56C12.824 27.52 11.264 28 9.264 28H1.728ZM4.992 25.12H9.6C10.448 25.12 11.12 24.888 11.616 24.424C12.128 23.944 12.384 23.312 12.384 22.528C12.384 21.744 12.128 21.112 11.616 20.632C11.12 20.152 10.448 19.912 9.6 19.912H4.992V25.12ZM4.992 17.056H9.432C10.104 17.056 10.64 16.864 11.04 16.48C11.44 16.08 11.64 15.568 11.64 14.944C11.64 14.32 11.44 13.824 11.04 13.456C10.64 13.088 10.104 12.904 9.432 12.904H4.992V17.056ZM16.8578 28L23.0258 10.12H27.2498L33.4178 28H29.8658L28.5938 24.16H21.6818L20.3858 28H16.8578ZM22.6178 21.28H27.6578L24.6818 12.376H25.5938L22.6178 21.28ZM35.4077 28V10.12H42.0797C43.2957 10.12 44.3677 10.344 45.2957 10.792C46.2397 11.224 46.9757 11.864 47.5037 12.712C48.0317 13.544 48.2957 14.56 48.2957 15.76C48.2957 16.944 48.0237 17.96 47.4797 18.808C46.9517 19.64 46.2237 20.28 45.2957 20.728C44.3677 21.176 43.2957 21.4 42.0797 21.4H38.6717V28H35.4077ZM38.6717 18.52H42.1277C42.7197 18.52 43.2317 18.408 43.6637 18.184C44.0957 17.944 44.4317 17.616 44.6717 17.2C44.9117 16.784 45.0317 16.304 45.0317 15.76C45.0317 15.2 44.9117 14.72 44.6717 14.32C44.4317 13.904 44.0957 13.584 43.6637 13.36C43.2317 13.12 42.7197 13 42.1277 13H38.6717V18.52ZM50.9702 28V10.12H62.8502V13H54.2342V17.584H62.3702V20.464H54.2342V25.12H62.8502V28H50.9702ZM65.2436 28V10.12H68.5076V25.12H76.1636V28H65.2436ZM78.2749 28V10.12H81.5389V28H78.2749ZM88.146 28V13H83.514V10.12H95.994V13H91.434V28H88.146ZM97.9858 28V10.12H105.522C106.706 10.12 107.714 10.328 108.546 10.744C109.394 11.144 110.042 11.72 110.49 12.472C110.954 13.208 111.186 14.104 111.186 15.16C111.186 15.976 110.962 16.744 110.514 17.464C110.082 18.168 109.386 18.752 108.426 19.216V17.704C109.306 18.04 110.002 18.456 110.514 18.952C111.026 19.448 111.386 20 111.594 20.608C111.802 21.216 111.906 21.856 111.906 22.528C111.906 24.24 111.338 25.584 110.202 26.56C109.082 27.52 107.522 28 105.522 28H97.9858ZM101.25 25.12H105.858C106.706 25.12 107.378 24.888 107.874 24.424C108.386 23.944 108.642 23.312 108.642 22.528C108.642 21.744 108.386 21.112 107.874 20.632C107.378 20.152 106.706 19.912 105.858 19.912H101.25V25.12ZM101.25 17.056H105.69C106.362 17.056 106.898 16.864 107.298 16.48C107.698 16.08 107.898 15.568 107.898 14.944C107.898 14.32 107.698 13.824 107.298 13.456C106.898 13.088 106.362 12.904 105.69 12.904H101.25V17.056ZM113.116 28L119.284 10.12H123.508L129.676 28H126.124L124.852 24.16H117.94L116.644 28H113.116ZM118.876 21.28H123.916L120.94 12.376H121.852L118.876 21.28ZM131.666 28V10.12H134.21L144.049 23.368L142.73 23.632V10.12H145.994V28H143.426L133.73 14.656L134.93 14.392V28H131.666ZM157.927 28.288C156.647 28.288 155.463 28.056 154.375 27.592C153.287 27.128 152.335 26.48 151.519 25.648C150.703 24.816 150.063 23.84 149.599 22.72C149.151 21.6 148.927 20.376 148.927 19.048C148.927 17.72 149.143 16.496 149.575 15.376C150.023 14.24 150.647 13.264 151.447 12.448C152.263 11.616 153.215 10.976 154.303 10.528C155.391 10.064 156.575 9.832 157.855 9.832C159.135 9.832 160.279 10.048 161.287 10.48C162.311 10.912 163.175 11.488 163.879 12.208C164.583 12.912 165.087 13.688 165.391 14.536L162.487 15.928C162.151 15 161.583 14.248 160.783 13.672C159.983 13.096 159.007 12.808 157.855 12.808C156.735 12.808 155.743 13.072 154.879 13.6C154.031 14.128 153.367 14.856 152.887 15.784C152.423 16.712 152.191 17.8 152.191 19.048C152.191 20.296 152.431 21.392 152.911 22.336C153.407 23.264 154.087 23.992 154.951 24.52C155.815 25.048 156.807 25.312 157.927 25.312C158.839 25.312 159.679 25.136 160.447 24.784C161.215 24.416 161.831 23.904 162.295 23.248C162.759 22.576 162.991 21.784 162.991 20.872V19.504L164.479 20.8H157.855V18.04H166.255V19.84C166.255 21.216 166.023 22.432 165.559 23.488C165.095 24.544 164.463 25.432 163.663 26.152C162.879 26.856 161.991 27.392 160.999 27.76C160.007 28.112 158.983 28.288 157.927 28.288Z" fill="#fff"/>
<path d="M1.008 52V41.57H2.912V47.002L2.394 46.82L6.832 41.57H9.226L5.068 46.498L5.18 45.154L9.352 52H7.112L4.312 47.408L2.912 49.074V52H1.008ZM13.8065 52.168C13.0598 52.168 12.3785 51.9953 11.7625 51.65C11.1558 51.3047 10.6705 50.8333 10.3065 50.236C9.95185 49.6387 9.77452 48.9573 9.77452 48.192C9.77452 47.4267 9.95185 46.7453 10.3065 46.148C10.6705 45.5507 11.1558 45.0793 11.7625 44.734C12.3692 44.3887 13.0505 44.216 13.8065 44.216C14.5532 44.216 15.2298 44.3887 15.8365 44.734C16.4432 45.0793 16.9238 45.5507 17.2785 46.148C17.6425 46.736 17.8245 47.4173 17.8245 48.192C17.8245 48.9573 17.6425 49.6387 17.2785 50.236C16.9145 50.8333 16.4292 51.3047 15.8225 51.65C15.2158 51.9953 14.5438 52.168 13.8065 52.168ZM13.8065 50.488C14.2172 50.488 14.5765 50.39 14.8845 50.194C15.2018 49.998 15.4492 49.7273 15.6265 49.382C15.8132 49.0273 15.9065 48.6307 15.9065 48.192C15.9065 47.744 15.8132 47.352 15.6265 47.016C15.4492 46.6707 15.2018 46.4 14.8845 46.204C14.5765 45.9987 14.2172 45.896 13.8065 45.896C13.3865 45.896 13.0178 45.9987 12.7005 46.204C12.3832 46.4 12.1312 46.6707 11.9445 47.016C11.7672 47.352 11.6785 47.744 11.6785 48.192C11.6785 48.6307 11.7672 49.0273 11.9445 49.382C12.1312 49.7273 12.3832 49.998 12.7005 50.194C13.0178 50.39 13.3865 50.488 13.8065 50.488ZM22.5506 52.084C21.6919 52.084 21.0246 51.8507 20.5486 51.384C20.0819 50.908 19.8486 50.2407 19.8486 49.382V46.022H18.5326V44.384H18.6726C19.0459 44.384 19.3353 44.286 19.5406 44.09C19.7459 43.894 19.8486 43.6093 19.8486 43.236V42.648H21.6826V44.384H23.4326V46.022H21.6826V49.284C21.6826 49.536 21.7246 49.7507 21.8086 49.928C21.9019 50.1053 22.0419 50.2407 22.2286 50.334C22.4246 50.4273 22.6719 50.474 22.9706 50.474C23.0359 50.474 23.1106 50.4693 23.1946 50.46C23.2879 50.4507 23.3766 50.4413 23.4606 50.432V52C23.3299 52.0187 23.1806 52.0373 23.0126 52.056C22.8446 52.0747 22.6906 52.084 22.5506 52.084ZM27.1445 52.168C26.6125 52.168 26.1505 52.0793 25.7585 51.902C25.3665 51.7247 25.0631 51.4727 24.8485 51.146C24.6338 50.81 24.5265 50.4227 24.5265 49.984C24.5265 49.564 24.6198 49.1907 24.8065 48.864C24.9931 48.528 25.2825 48.248 25.6745 48.024C26.0665 47.8 26.5611 47.6413 27.1585 47.548L29.6505 47.142V48.542L27.5085 48.906C27.1445 48.9713 26.8738 49.088 26.6965 49.256C26.5191 49.424 26.4305 49.6433 26.4305 49.914C26.4305 50.1753 26.5285 50.3853 26.7245 50.544C26.9298 50.6933 27.1818 50.768 27.4805 50.768C27.8631 50.768 28.1991 50.6887 28.4885 50.53C28.7871 50.362 29.0158 50.1333 29.1745 49.844C29.3425 49.5547 29.4265 49.2373 29.4265 48.892V46.932C29.4265 46.6053 29.2958 46.3347 29.0345 46.12C28.7825 45.896 28.4465 45.784 28.0265 45.784C27.6345 45.784 27.2845 45.8913 26.9765 46.106C26.6778 46.3113 26.4585 46.5867 26.3185 46.932L24.8205 46.204C24.9698 45.8027 25.2031 45.4573 25.5205 45.168C25.8471 44.8693 26.2298 44.636 26.6685 44.468C27.1071 44.3 27.5831 44.216 28.0965 44.216C28.7218 44.216 29.2725 44.3327 29.7485 44.566C30.2245 44.79 30.5931 45.1073 30.8545 45.518C31.1251 45.9193 31.2605 46.3907 31.2605 46.932V52H29.5245V50.698L29.9165 50.67C29.7205 50.9967 29.4871 51.272 29.2165 51.496C28.9458 51.7107 28.6378 51.8787 28.2925 52C27.9471 52.112 27.5645 52.168 27.1445 52.168ZM35.5978 52V41.57H39.9938C40.6845 41.57 41.2725 41.6913 41.7578 41.934C42.2525 42.1673 42.6305 42.5033 42.8918 42.942C43.1625 43.3713 43.2978 43.894 43.2978 44.51C43.2978 44.986 43.1672 45.434 42.9058 45.854C42.6538 46.2647 42.2478 46.6053 41.6878 46.876V45.994C42.2012 46.19 42.6072 46.4327 42.9058 46.722C43.2045 47.0113 43.4145 47.3333 43.5358 47.688C43.6572 48.0427 43.7178 48.416 43.7178 48.808C43.7178 49.8067 43.3865 50.5907 42.7238 51.16C42.0705 51.72 41.1605 52 39.9938 52H35.5978ZM37.5018 50.32H40.1898C40.6845 50.32 41.0765 50.1847 41.3658 49.914C41.6645 49.634 41.8138 49.2653 41.8138 48.808C41.8138 48.3507 41.6645 47.982 41.3658 47.702C41.0765 47.422 40.6845 47.282 40.1898 47.282H37.5018V50.32ZM37.5018 45.616H40.0918C40.4838 45.616 40.7965 45.504 41.0298 45.28C41.2632 45.0467 41.3798 44.748 41.3798 44.384C41.3798 44.02 41.2632 43.7307 41.0298 43.516C40.7965 43.3013 40.4838 43.194 40.0918 43.194H37.5018V45.616ZM47.4335 52.168C46.9015 52.168 46.4395 52.0793 46.0475 51.902C45.6555 51.7247 45.3522 51.4727 45.1375 51.146C44.9229 50.81 44.8155 50.4227 44.8155 49.984C44.8155 49.564 44.9089 49.1907 45.0955 48.864C45.2822 48.528 45.5715 48.248 45.9635 48.024C46.3555 47.8 46.8502 47.6413 47.4475 47.548L49.9395 47.142V48.542L47.7975 48.906C47.4335 48.9713 47.1629 49.088 46.9855 49.256C46.8082 49.424 46.7195 49.6433 46.7195 49.914C46.7195 50.1753 46.8175 50.3853 47.0135 50.544C47.2189 50.6933 47.4709 50.768 47.7695 50.768C48.1522 50.768 48.4882 50.6887 48.7775 50.53C49.0762 50.362 49.3049 50.1333 49.4635 49.844C49.6315 49.5547 49.7155 49.2373 49.7155 48.892V46.932C49.7155 46.6053 49.5849 46.3347 49.3235 46.12C49.0715 45.896 48.7355 45.784 48.3155 45.784C47.9235 45.784 47.5735 45.8913 47.2655 46.106C46.9669 46.3113 46.7475 46.5867 46.6075 46.932L45.1095 46.204C45.2589 45.8027 45.4922 45.4573 45.8095 45.168C46.1362 44.8693 46.5189 44.636 46.9575 44.468C47.3962 44.3 47.8722 44.216 48.3855 44.216C49.0109 44.216 49.5615 44.3327 50.0375 44.566C50.5135 44.79 50.8822 45.1073 51.1435 45.518C51.4142 45.9193 51.5495 46.3907 51.5495 46.932V52H49.8135V50.698L50.2055 50.67C50.0095 50.9967 49.7762 51.272 49.5055 51.496C49.2349 51.7107 48.9269 51.8787 48.5815 52C48.2362 52.112 47.8535 52.168 47.4335 52.168ZM53.2446 52V44.384H54.9666V45.882L54.8266 45.616C55.004 45.1587 55.2933 44.8133 55.6946 44.58C56.1053 44.3373 56.5813 44.216 57.1226 44.216C57.6826 44.216 58.1773 44.3373 58.6066 44.58C59.0453 44.8227 59.386 45.1633 59.6286 45.602C59.8713 46.0313 59.9926 46.5307 59.9926 47.1V52H58.1586V47.534C58.1586 47.198 58.0933 46.9087 57.9626 46.666C57.832 46.4233 57.65 46.2367 57.4166 46.106C57.1926 45.966 56.9266 45.896 56.6186 45.896C56.32 45.896 56.054 45.966 55.8206 46.106C55.5873 46.2367 55.4053 46.4233 55.2746 46.666C55.144 46.9087 55.0786 47.198 55.0786 47.534V52H53.2446ZM65.0855 52.168C64.3481 52.168 63.6901 51.9953 63.1115 51.65C62.5328 51.2953 62.0755 50.8147 61.7395 50.208C61.4035 49.6013 61.2355 48.9293 61.2355 48.192C61.2355 47.4453 61.4035 46.7733 61.7395 46.176C62.0755 45.5787 62.5328 45.1027 63.1115 44.748C63.6995 44.3933 64.3528 44.216 65.0715 44.216C65.6501 44.216 66.1635 44.3327 66.6115 44.566C67.0688 44.79 67.4281 45.1073 67.6895 45.518L67.4095 45.896V41.402H69.2435V52H67.5075V50.53L67.7035 50.894C67.4421 51.3047 67.0781 51.622 66.6115 51.846C66.1448 52.0607 65.6361 52.168 65.0855 52.168ZM65.2815 50.488C65.7015 50.488 66.0701 50.39 66.3875 50.194C66.7048 49.998 66.9521 49.7273 67.1295 49.382C67.3161 49.0367 67.4095 48.64 67.4095 48.192C67.4095 47.7533 67.3161 47.3613 67.1295 47.016C66.9521 46.6613 66.7048 46.386 66.3875 46.19C66.0701 45.994 65.7015 45.896 65.2815 45.896C64.8708 45.896 64.5021 45.9987 64.1755 46.204C63.8488 46.4 63.5921 46.6707 63.4055 47.016C63.2281 47.352 63.1395 47.744 63.1395 48.192C63.1395 48.64 63.2281 49.0367 63.4055 49.382C63.5921 49.7273 63.8488 49.998 64.1755 50.194C64.5021 50.39 64.8708 50.488 65.2815 50.488ZM73.6657 52.168C73.0777 52.168 72.5644 52.0373 72.1257 51.776C71.6964 51.5147 71.365 51.1507 71.1317 50.684C70.9077 50.2173 70.7957 49.6713 70.7957 49.046V44.384H72.6297V48.892C72.6297 49.2093 72.6904 49.4893 72.8117 49.732C72.9424 49.9653 73.1244 50.152 73.3577 50.292C73.6004 50.4227 73.871 50.488 74.1697 50.488C74.4684 50.488 74.7344 50.4227 74.9677 50.292C75.201 50.152 75.383 49.9607 75.5137 49.718C75.6444 49.4753 75.7097 49.186 75.7097 48.85V44.384H77.5437V52H75.8077V50.502L75.9617 50.768C75.7844 51.2347 75.4904 51.5847 75.0797 51.818C74.6784 52.0513 74.207 52.168 73.6657 52.168ZM79.2485 52V44.384H80.9705V45.882L80.8305 45.616C81.0079 45.1587 81.2972 44.8133 81.6985 44.58C82.1092 44.3373 82.5852 44.216 83.1265 44.216C83.6865 44.216 84.1812 44.3373 84.6105 44.58C85.0492 44.8227 85.3899 45.1633 85.6325 45.602C85.8752 46.0313 85.9965 46.5307 85.9965 47.1V52H84.1625V47.534C84.1625 47.198 84.0972 46.9087 83.9665 46.666C83.8359 46.4233 83.6539 46.2367 83.4205 46.106C83.1965 45.966 82.9305 45.896 82.6225 45.896C82.3239 45.896 82.0579 45.966 81.8245 46.106C81.5912 46.2367 81.4092 46.4233 81.2785 46.666C81.1479 46.9087 81.0825 47.198 81.0825 47.534V52H79.2485ZM91.2434 55.08C90.674 55.08 90.1467 54.9867 89.6614 54.8C89.176 54.6133 88.756 54.352 88.4014 54.016C88.056 53.6893 87.804 53.302 87.6454 52.854L89.3534 52.21C89.4654 52.5647 89.6847 52.8493 90.0114 53.064C90.3474 53.288 90.758 53.4 91.2434 53.4C91.6167 53.4 91.9434 53.33 92.2234 53.19C92.5127 53.05 92.7367 52.8447 92.8954 52.574C93.054 52.3127 93.1334 51.9953 93.1334 51.622V49.886L93.4834 50.306C93.222 50.7633 92.872 51.1087 92.4334 51.342C91.9947 51.5753 91.4954 51.692 90.9354 51.692C90.226 51.692 89.5914 51.5287 89.0314 51.202C88.4714 50.8753 88.0327 50.4273 87.7154 49.858C87.398 49.2887 87.2394 48.6493 87.2394 47.94C87.2394 47.2213 87.398 46.582 87.7154 46.022C88.0327 45.462 88.4667 45.0233 89.0174 44.706C89.568 44.3793 90.1934 44.216 90.8934 44.216C91.4627 44.216 91.962 44.3373 92.3914 44.58C92.83 44.8133 93.194 45.154 93.4834 45.602L93.2314 46.064V44.384H94.9674V51.622C94.9674 52.2847 94.804 52.8773 94.4774 53.4C94.16 53.9227 93.7214 54.3333 93.1614 54.632C92.6107 54.9307 91.9714 55.08 91.2434 55.08ZM91.1594 49.998C91.5514 49.998 91.892 49.914 92.1814 49.746C92.48 49.5687 92.7134 49.326 92.8814 49.018C93.0494 48.71 93.1334 48.3553 93.1334 47.954C93.1334 47.562 93.0447 47.212 92.8674 46.904C92.6994 46.5867 92.466 46.3393 92.1674 46.162C91.878 45.9847 91.542 45.896 91.1594 45.896C90.7767 45.896 90.4314 45.9847 90.1234 46.162C89.8154 46.3393 89.5727 46.5867 89.3954 46.904C89.2274 47.212 89.1434 47.562 89.1434 47.954C89.1434 48.346 89.2274 48.696 89.3954 49.004C89.5727 49.312 89.8107 49.5547 90.1094 49.732C90.4174 49.9093 90.7674 49.998 91.1594 49.998Z" fill="#fff"/>
<line x1="102" y1="46" x2="168" y2="46" stroke="#fff"/>
</svg>
